<svg xmlns="http://www.w3.org/2000/svg" width="100" height="100"><path fill="#c7ede6" d="M87.2 56.7c1.1-2.2 1.8-4.6 1.8-7.2 0-6.6-4.2-12.3-10-14.5 0-11.6-9.4-21-21-21-9.8 0-18 6.7-20.3 15.8-1.5-.5-3-.8-4.7-.8-7.7 0-14 5.8-14.9 13.3C12.9 43.4 9 48 9 53.5 9 59.9 14.1 65 20.5 65h.5v.5C21 76.8 30.2 86 41.5 86c6.4 0 12.2-3 15.9-7.6 2.2 2.2 5.2 3.6 8.6 3.6 4.7 0 8.7-2.7 10.7-6.5 1.1.3 2.2.5 3.3.5 6.1 0 11-4.9 11-11 0-3.3-1.5-6.3-3.8-8.3z"/><path fill="#fdfcef" d="M79.9 36.5H86c2.5 0 4.5-2 4.5-4.5 0-2.3-1.8-4.2-4.1-4.5 0-.2.1-.4.1-.5 0-2.5-2-4.5-4.5-4.5-1.4 0-2.7.7-3.5 1.7-.1-2.6-2.3-4.7-5-4.7-2.8 0-5 2.2-5 5 0 .4.1.9.2 1.3-.7-.8-1.6-1.3-2.7-1.3-1.8 0-3.2 1.3-3.5 3.1-.2 0-.4-.1-.5-.1-2.5 0-4.5 2-4.5 4.5s2 4.5 4.5 4.5h14.9v.5h3v-.5z"/><path fill="#472b29" d="M73.5 19c-3 0-5.5 2.5-5.5 5.5-.6-.4-1.3-.5-2-.5-1.8 0-3.4 1.3-3.9 3H62c-2.8 0-5 2.2-5 5s2.2 5 5 5h14.9c.3 0 .5-.2.5-.5s-.2-.5-.5-.5H62c-2.2 0-4-1.8-4-4s1.8-4 4-4h.5c.2 0 .5-.2.5-.4.2-1.5 1.5-2.6 3-2.6.9 0 1.7.4 2.3 1.1.1.1.2.2.4.2.1 0 .2 0 .2-.1.2-.1.3-.3.3-.6-.1-.4-.2-.8-.2-1.2 0-2.5 2-4.5 4.5-4.5 2.4 0 4.3 1.9 4.5 4.3 0 .2.2.4.3.5h.2c.2 0 .3-.1.4-.2.8-1 1.9-1.5 3.1-1.5 2.2 0 4 1.8 4 4v.4c0 .1 0 .3.1.4s.2.2.3.2c2.1.2 3.6 1.9 3.6 4 0 2.2-1.8 4-4 4h-6.1c-.3 0-.5.2-.5.5s.2.5.5.5H86c2.8 0 5-2.2 5-5 0-2.4-1.7-4.4-4-4.9V27c0-2.8-2.2-5-5-5-1.2 0-2.3.4-3.2 1.2-.6-2.4-2.7-4.2-5.3-4.2z"/><path fill="#472b29" d="M72 26c-1.4 0-2.6 1-2.9 2.3-.4-.2-.8-.3-1.2-.3-1.2 0-2.2.9-2.4 2.1-.2 0-.4-.1-.6-.1-1.5 0-2.8 1.2-2.9 2.7 0 .1.1.3.2.3s.2-.1.2-.2c.1-1.3 1.2-2.3 2.4-2.3.2 0 .5 0 .7.1h.1c.1 0 .1 0 .2-.1.1 0 .1-.1.1-.2 0-1 .8-1.9 1.9-1.9.4 0 .9.2 1.2.5 0 0 .1.1.2.1h.1c.1 0 .1-.1.2-.2.1-1.3 1.2-2.3 2.5-2.3.2 0 .4 0 .7.1h.1c.1 0 .2-.1.2-.2s0-.3-.2-.3c-.3-.1-.5-.1-.8-.1zm13.9 1.5c-1.3 0-2.5.9-2.9 2.2 0 .1 0 .3.2.3h.1c.1 0 .2-.1.2-.2.3-1.1 1.3-1.8 2.4-1.8h.3c.1 0 .2-.1.2-.2s-.1-.3-.2-.3h-.3z"/><path fill="#fff" d="M15.4 51H5.5c-.3 0-.5-.2-.5-.5s.2-.5.5-.5h9.9c.3 0 .5.2.5.5s-.2.5-.5.5zm3.1 0h-1c-.3 0-.5-.2-.5-.5s.2-.5.5-.5h1c.3 0 .5.2.5.5s-.2.5-.5.5zm5 2h-9c-.3 0-.5-.2-.5-.5s.2-.5.5-.5h9c.3 0 .5.2.5.5s-.2.5-.5.5zm-11 0h-1c-.3 0-.5-.2-.5-.5s.2-.5.5-.5h1c.3 0 .5.2.5.5s-.2.5-.5.5zm-3 0h-2c-.3 0-.5-.2-.5-.5s.2-.5.5-.5h2c.3 0 .5.2.5.5s-.2.5-.5.5zm6 2h-2c-.3 0-.5-.2-.5-.5s.2-.5.5-.5h2c.3 0 .5.2.5.5s-.2.5-.5.5zm3-9h-1c-.3 0-.5.2-.5.5s.2.5.5.5h1c.3 0 .5-.2.5-.5s-.2-.5-.5-.5zm0 2h-5c-.3 0-.5.2-.5.5s.2.5.5.5h5c.3 0 .5-.2.5-.5s-.2-.5-.5-.5zm5 2h-3c-.3 0-.5.2-.5.5s.2.5.5.5h3c.3 0 .5-.2.5-.5s-.2-.5-.5-.5zm63 11h-10c-.3 0-.5-.2-.5-.5s.2-.5.5-.5h10c.3 0 .5.2.5.5s-.2.5-.5.5zm4 0h-2c-.3 0-.5-.2-.5-.5s.2-.5.5-.5h2c.3 0 .5.2.5.5s-.2.5-.5.5zm5 2h-10c-.3 0-.5-.2-.5-.5s.2-.5.5-.5h10c.3 0 .5.2.5.5s-.2.5-.5.5zm-12 0h-1c-.3 0-.5-.2-.5-.5s.2-.5.5-.5h1c.3 0 .5.2.5.5s-.2.5-.5.5zm-3.1 0h-1.9c-.3 0-.5-.2-.5-.5s.2-.5.5-.5h1.9c.3 0 .5.2.5.5s-.2.5-.5.5zm9.1-4h-5c-.3 0-.5-.2-.5-.5s.2-.5.5-.5h5c.3 0 .5.2.5.5s-.2.5-.5.5zm-3 6h-2c-.3 0-.5-.2-.5-.5s.2-.5.5-.5h2c.3 0 .5.2.5.5s-.2.5-.5.5z"/><path fill="#a1d3a2" d="M29.7 30.7h43.6v7.6H29.7z"/><path fill="#472b29" d="M72.6 31.4v6.2H30.4v-6.2h42.2M74 30H29v9h45v-9z"/><path fill="#a1d3a2" d="M29.7 45.7h43.6v7.6H29.7z"/><path fill="#472b29" d="M72.6 46.4v6.2H30.4v-6.2h42.2M74 45H29v9h45v-9z"/><path fill="#a1d3a2" d="M29.7 60.7h43.6v7.6H29.7z"/><path fill="#472b29" d="M72.6 61.4v6.2H30.4v-6.2h42.2M74 60H29v9h45v-9zm-14.5-9h-30c-.3 0-.5-.2-.5-.5s.2-.5.5-.5h30c.3 0 .5.2.5.5s-.2.5-.5.5zm10.1 0h-.9c-.3 0-.5-.2-.5-.5s.2-.5.5-.5h.9c.3 0 .5.2.5.5s-.2.5-.5.5z"/><path fill="#472b29" d="M72.5 66h-39c-.3 0-.5-.2-.5-.5s.2-.5.5-.5h39c.3 0 .5.2.5.5s-.2.5-.5.5zm-41.1 3h-.9c-.3 0-.5-.2-.5-.5s.2-.5.5-.5h.9c.3 0 .5.2.5.5s-.2.5-.5.5zm34.1-34h-36c-.3 0-.5-.2-.5-.5s.2-.5.5-.5h36c.3 0 .5.2.5.5s-.2.5-.5.5zm4 0h-.9c-.3 0-.5-.2-.5-.5s.2-.5.5-.5h.9c.3 0 .5.2.5.5s-.2.5-.5.5zm-3.6 16h-3.4c-.3 0-.5-.2-.5-.5s.2-.5.5-.5h3.4c.3 0 .5.2.5.5s-.2.5-.5.5z"/><path fill="#fdfcef" d="M37.5 76.5H41c1.9 0 3.5-1.6 3.5-3.5 0-1.8-1.3-3.2-3.1-3.5 0-.2.1-.4.1-.5 0-1.9-1.6-3.5-3.5-3.5-1 0-2 .5-2.6 1.2-.4-1.8-2-3.2-3.9-3.2-2.2 0-4 1.8-4 4 0 .2 0 .4.1.6-.4-.3-1-.6-1.6-.6-1.2 0-2.2.9-2.5 2.1-.2 0-.4-.1-.5-.1-1.9 0-3.5 1.6-3.5 3.5s1.6 3.5 3.5 3.5h7.5v.5h7v-.5z"/><path fill="#472b29" d="M39.3 72c-.1 0-.3-.1-.3-.3 0-1.2 1-2.2 2.2-2.2 0 0 .7 0 1.2.1.1 0 .2.2.2.3 0 .1-.2.2-.3.2-.4-.1-1.1-.1-1.1-.1-.9 0-1.7.8-1.7 1.7 0 .2-.1.3-.2.3zm-6.8 4a.5.5 0 1 0 0 1 .5.5 0 1 0 0-1z"/><path fill="#472b29" d="M41 77h-3.5c-.3 0-.5-.2-.5-.5s.2-.5.5-.5H41c1.7 0 3-1.3 3-3 0-1.5-1.1-2.8-2.6-3-.1 0-.3-.1-.3-.2s-.1-.2-.1-.4v-.5c0-1.7-1.3-3-3-3-.8 0-1.6.4-2.2 1-.1.1-.3.2-.5.1-.2 0-.3-.2-.4-.4-.3-1.6-1.8-2.8-3.4-2.8-1.9 0-3.5 1.6-3.5 3.5v.4c0 .2-.1.4-.2.5s-.4.1-.6 0c-.3 0-.8-.2-1.2-.2-1 0-1.8.7-2 1.6 0 .3-.3.4-.6.4h-.5c-1.7 0-3 1.3-3 3s1.3 3 3 3h7.5c.3 0 .5.2.5.5s-.1.5-.4.5H23c-2.2 0-4-1.8-4-4s1.8-4 4-4h.2c.4-1.2 1.5-2 2.8-2 .3 0 .7.1 1 .2.2-2.3 2.1-4.2 4.5-4.2 1.8 0 3.5 1.1 4.2 2.8.7-.5 1.5-.8 2.3-.8 2.2 0 4 1.8 4 4v.1c1.7.4 3 2 3 3.9 0 2.2-1.8 4-4 4z"/><path fill="#472b29" d="M35.5 76h-1c-.3 0-.5.2-.5.5s.2.5.5.5h1c.3 0 .5-.2.5-.5s-.2-.5-.5-.5z"/></svg>