<svg xmlns="http://www.w3.org/2000/svg" width="350" height="350" viewBox="0 0 350 350"><title>sun</title><g id="vector"><path d="M175,66.1A108.9,108.9,0,1,1,66.1,175,108.8,108.8,0,0,1,175,66.1Z" fill="#ebc342"/><polygon points="175 4 144.4 51.9 205.6 51.9 175 4" fill="#f7d460"/><polygon points="298.1 144.4 298.1 205.6 346 175 298.1 144.4" fill="#f7d460"/><polygon points="175 346 205.6 298.1 144.4 298.1 175 346" fill="#f7d460"/><polygon points="51.9 144.4 4 175 51.9 205.6 51.9 144.4" fill="#f7d460"/><polygon points="295.9 54.1 240.4 66.3 283.7 109.6 295.9 54.1" fill="#f7d460"/><polygon points="295.9 295.9 283.7 240.4 240.4 283.7 295.9 295.9" fill="#f7d460"/><polygon points="66.3 240.4 54.1 295.9 109.6 283.7 66.3 240.4" fill="#f7d460"/><polygon points="109.6 66.3 54.1 54.1 66.3 109.6 109.6 66.3" fill="#f7d460"/></g></svg>